<svg xmlns="http://www.w3.org/2000/svg" fill="none" viewBox="-0.125 -0.125 200.25 200.25" stroke-width="1"><g id="Customer-service-Support-Listening-to-feedback"><g id="color 2"><path id="Vector" fill="#f5221b" d="M149.58 90.386L129.593 109.938C124.386 94.357 118.439 90.083 115.817 88.923C113.178 90.929 100.168 93.78 93.455 94.643L78.483 124.149C77.6958 125.709 77.2496 127.419 77.1743 129.165C77.0989 130.912 77.3961 132.654 78.046 134.276C82.754 145.677 88.497 156.623 95.203 166.976C103.41 165.836 110.345 162.492 114.449 155.367C107.286 145.392 101.282 135.93 97.103 127.323L103.866 116.209L103.582 105.302C107.723 113.853 114.944 122.516 120.548 128.482C122.311 130.351 124.712 131.488 127.275 131.667C129.837 131.847 132.374 131.056 134.38 129.451C144.127 121.68 153.456 113.567 162.728 105.451C161.97 102.041 160.369 98.8758 158.073 96.2441C155.776 93.6124 152.856 91.5984 149.58 90.386Z"></path><path id="Subtract" fill="#f5221b" fill-rule="evenodd" d="M67.1611 37.567L59.6001 34.577C57.6745 35.8543 55.5295 36.7649 53.2731 37.263C42.2341 39.733 31.2001 32.25 31.1001 21.55C31.0111 12.506 38.9631 5.09999 48.8811 4.99999C58.7801 4.90599 66.8861 12.145 66.9901 21.213C67.0164 24.3792 66.0532 27.4746 64.2351 30.067L67.1611 37.567ZM52.0363 17.9078C52.2987 18.0166 52.5372 18.176 52.7379 18.377C52.9389 18.5778 53.0984 18.8162 53.2071 19.0787C53.3159 19.3411 53.3719 19.6224 53.3719 19.9065C53.3719 20.1906 53.3159 20.4719 53.2071 20.7343C53.0984 20.9968 52.9389 21.2352 52.7379 21.436L49.1279 25.027L45.5179 21.436C45.1123 21.0303 44.8844 20.4802 44.8844 19.9065C44.8844 19.3328 45.1123 18.7826 45.5179 18.377C45.9236 17.9714 46.4738 17.7435 47.0474 17.7435C47.6211 17.7435 48.1713 17.9714 48.5769 18.377L49.1279 18.928L49.6789 18.377C49.8797 18.176 50.1182 18.0166 50.3806 17.9078C50.643 17.799 50.9243 17.743 51.2084 17.743C51.4925 17.743 51.7738 17.799 52.0363 17.9078Z" clip-rule="evenodd"></path><path id="Vector_2" fill="#f5221b" d="M25.207 88.544L26.043 90.235L27.905 90.501L26.556 91.812L26.879 93.673L25.207 92.799L23.554 93.673L23.858 91.812L22.528 90.501L24.39 90.235L25.207 88.544Z"></path><path id="Vector_3" fill="#f5221b" d="M32.465 88.544L33.301 90.235L35.163 90.501L33.814 91.812L34.137 93.673L32.465 92.799L30.812 93.673L31.116 91.812L29.767 90.501L31.629 90.235L32.465 88.544Z"></path><path id="Vector_4" fill="#f5221b" d="M39.7229 88.544L40.5589 90.235L42.4209 90.501L41.0719 91.812L41.3949 93.673L39.7229 92.799L38.0509 93.673L38.3739 91.812L37.0249 90.501L38.8869 90.235L39.7229 88.544Z"></path><path id="Vector_5" fill="#f5221b" d="M46.981 88.544L47.817 90.235L49.679 90.501L48.33 91.812L48.634 93.673L46.981 92.799L45.309 93.673L45.632 91.812L44.283 90.501L46.145 90.235L46.981 88.544Z"></path><path id="Vector_6" fill="#f5221b" d="M54.239 88.544L55.056 90.235L56.918 90.501L55.569 91.812L55.892 93.673L54.239 92.799L52.567 93.673L52.89 91.812L51.541 90.501L53.403 90.235L54.239 88.544Z"></path><path id="Vector_7" fill="#f5221b" d="M168.922 159.318L161.93 158.311L158.814 151.984L155.698 158.311L148.706 159.318L153.76 164.258L152.563 171.212L158.814 167.925L165.065 171.212L163.868 164.258L168.922 159.318Z"></path></g><g id="color 1"><path id="Vector_8" fill="#1f1f1f" d="M95.906 50.506C95.9959 50.9436 96.0405 51.3893 96.039 51.836L97.083 49.822C96.7109 50.0832 96.3172 50.3121 95.906 50.506V50.506Z"></path><path id="Vector_9" fill="#1f1f1f" d="M93.1891 93.312C92.6761 95.858 91.2701 94.889 90.2061 92.191C91.1762 92.626 92.1725 93.0004 93.1891 93.312V93.312Z"></path><path id="Vector_10" fill="#1f1f1f" d="M91.7071 83.092C91.238 83.2092 90.7499 83.229 90.2728 83.1504C89.7958 83.0718 89.3398 82.8964 88.9331 82.635C89.3701 80.2 90.6241 80.679 91.7071 83.092Z"></path><path id="Vector_11" fill="#1f1f1f" d="M79.547 56.548L74.2081 65.288C74.1632 65.356 74.1472 65.4391 74.1634 65.5189C74.1797 65.5987 74.2269 65.6689 74.2947 65.714C74.3626 65.7591 74.4455 65.7755 74.5254 65.7596C74.6053 65.7436 74.6757 65.6967 74.7211 65.629L80.7441 57.346C80.8015 57.2676 80.8424 57.1783 80.8644 57.0836C80.8864 56.9889 80.889 56.8908 80.872 56.7951C80.855 56.6993 80.8189 56.6081 80.7657 56.5267C80.7125 56.4453 80.6433 56.3756 80.5624 56.3217C80.4816 56.2677 80.3906 56.2308 80.295 56.2129C80.1995 56.1951 80.1013 56.1968 80.0064 56.218C79.9115 56.2391 79.8219 56.2793 79.743 56.336C79.664 56.3927 79.5974 56.4648 79.547 56.548V56.548Z"></path><path id="Vector_12" fill="#1f1f1f" d="M93.3601 48.587C93.3682 48.8361 93.4728 49.0723 93.6518 49.2457C93.8309 49.4191 94.0704 49.516 94.3196 49.516C94.5689 49.516 94.8083 49.4191 94.9874 49.2457C95.1665 49.0723 95.2711 48.8361 95.2791 48.587C95.2711 48.3379 95.1665 48.1017 94.9874 47.9283C94.8083 47.7549 94.5689 47.658 94.3196 47.658C94.0704 47.658 93.8309 47.7549 93.6518 47.9283C93.4728 48.1017 93.3682 48.3379 93.3601 48.587Z"></path><path id="Vector_13" fill="#1f1f1f" d="M106.887 111.21L103.847 116.188L103.562 105.282C104.568 107.314 105.677 109.293 106.887 111.21Z"></path><path id="Vector_14" fill="#1f1f1f" d="M153 88.505L150.872 90.938C154.865 92.6914 158.189 95.6818 160.353 99.468C161.804 98.4267 163.424 97.6427 165.141 97.15C170.863 94.9035 176.302 91.9958 181.348 88.486C175.8 86.644 158.719 88.011 153 88.505Z"></path><path id="Vector_15" fill="#1f1f1f" d="M109.415 161.332C106 163.99 101.989 165.777 97.729 166.538L98.414 167.621C99.649 169.54 99.801 171.649 99.99 173.929C100.693 180.038 102.102 186.045 104.19 191.829C107.42 186.929 110.479 170.074 111.467 164.412L109.415 161.332Z"></path><path id="Vector_16" fill="#1f1f1f" d="M110 33.178C110 29.15 107.189 24.02 103.142 24.02C99.113 24.02 95.618 27.934 95.123 31.867C94.9958 32.8916 95.1489 33.9315 95.566 34.876C94.3648 35.005 93.237 35.5175 92.3498 36.3375C91.4625 37.1576 90.863 38.2416 90.64 39.429L91.133 39.41C90.9932 40.754 90.9284 42.1048 90.939 43.456C91.754 36.206 95.911 38.939 97.194 41.766C97.494 40.284 98.258 39.239 99.152 39.239H101.83C102.12 39.2497 102.399 39.3492 102.63 39.524C102.603 39.399 102.574 39.28 102.544 39.162C106.541 39.122 110 37.165 110 33.178Z"></path></g><g id="outlines"><path id="Vector_17" stroke="#1f1f1f" stroke-linejoin="round" d="M110 33.178C110 29.15 107.189 24.02 103.142 24.02C99.113 24.02 95.618 27.934 95.123 31.867C94.9958 32.8916 95.1489 33.9315 95.566 34.876C94.3648 35.005 93.237 35.5175 92.3498 36.3375C91.4625 37.1576 90.863 38.2416 90.64 39.429L91.133 39.41C90.9932 40.754 90.9284 42.1048 90.939 43.456C91.754 36.206 95.911 38.939 97.194 41.766C97.494 40.284 98.258 39.239 99.152 39.239H101.83C102.12 39.2497 102.399 39.3492 102.63 39.524C102.603 39.399 102.574 39.28 102.544 39.162C106.541 39.122 110 37.165 110 33.178Z"></path><path id="Vector_18" stroke="#1f1f1f" stroke-linecap="round" stroke-linejoin="round" d="M91.346 160.743C78.5708 158.922 66.7375 152.985 57.64 143.833"></path><path id="Vector_19" stroke="#1f1f1f" stroke-linecap="round" stroke-linejoin="round" d="M158.814 108.854C157.312 121.478 151.807 133.29 143.106 142.559C134.404 151.828 122.964 158.067 110.459 160.363"></path><path id="Vector_20" stroke="#1f1f1f" stroke-linecap="round" stroke-linejoin="round" d="M152.677 74.712C154.467 78.1893 155.906 81.8367 156.971 85.6"></path><path id="Vector_21" stroke="#1f1f1f" stroke-linecap="round" stroke-linejoin="round" d="M41.908 118.468V98.917H57.336C58.0521 98.917 58.7388 98.6325 59.2452 98.1262C59.7515 97.6198 60.036 96.9331 60.036 96.217V85.979C60.036 85.6249 59.9661 85.2744 59.8303 84.9474C59.6944 84.6205 59.4954 84.3235 59.2445 84.0737C58.9937 83.8239 58.6959 83.626 58.3684 83.4915C58.0409 83.357 57.6901 83.2886 57.336 83.29H22.11C21.7548 83.2903 21.4031 83.3606 21.0751 83.4971C20.7471 83.6335 20.4492 83.8333 20.1986 84.0851C19.9479 84.3368 19.7494 84.6355 19.6145 84.9641C19.4795 85.2928 19.4107 85.6448 19.412 86V96.219C19.412 96.9351 19.6965 97.6218 20.2028 98.1282C20.7092 98.6345 21.3959 98.919 22.112 98.919H37.538V120.1"></path><path id="Vector_22" stroke="#1f1f1f" stroke-linecap="round" stroke-linejoin="round" d="M41.9081 130.4V125.802"></path><path id="Vector_23" stroke="#1f1f1f" stroke-linecap="round" stroke-linejoin="round" d="M37.5381 132.728V143.871H41.9081V131.331"></path><path id="Vector_24" stroke="#1f1f1f" stroke-linecap="round" stroke-linejoin="round" d="M41.9081 108.3H57.0321C58.7655 108.3 60.428 108.989 61.6537 110.214C62.8794 111.44 63.5681 113.103 63.5681 114.836V137.313C63.5686 139.048 62.8805 140.711 61.6549 141.939C60.4293 143.166 58.7666 143.857 57.0321 143.859H22.4141C21.5562 143.86 20.7065 143.692 19.9137 143.364C19.1208 143.037 18.4003 142.556 17.7932 141.95C17.1862 141.344 16.7046 140.624 16.376 139.832C16.0474 139.039 15.8782 138.19 15.8781 137.332V114.832C15.8781 113.099 16.5667 111.436 17.7924 110.21C19.0181 108.985 20.6806 108.296 22.4141 108.296H37.538"></path><path id="Vector_25" stroke="#1f1f1f" stroke-linecap="round" stroke-linejoin="round" d="M39.837 129.3C42.097 129.122 42.155 126.371 39.97 126.393C38.336 126.41 37.196 126.47 35.904 126.526C33.738 126.626 33.758 129.509 35.543 129.585C36.9783 129.564 38.4115 129.468 39.837 129.3V129.3Z"></path><path id="Vector_26" stroke="#1f1f1f" stroke-linecap="round" stroke-linejoin="round" d="M38.1521 120.121C37.3701 120.102 36.7871 120.102 36.0521 120.102C33.9811 120.083 33.9051 122.971 35.6151 123.142C36.4758 123.199 37.3394 123.199 38.2001 123.142"></path><path id="Vector_27" stroke="#1f1f1f" stroke-linecap="round" stroke-linejoin="round" d="M40.3501 132.4C42.5341 132.162 42.5351 129.512 40.4261 129.588C38.8491 129.645 37.7471 129.742 36.4931 129.835C34.4031 129.99 34.4791 132.774 36.2081 132.799C37.5948 132.739 38.9774 132.606 40.3501 132.4V132.4Z"></path><path id="Vector_28" stroke="#1f1f1f" stroke-linecap="round" stroke-linejoin="round" d="M38.2071 123.2C37.3851 123.22 36.6721 123.295 35.8661 123.313C33.6661 123.37 33.6251 126.3 35.4481 126.413C36.5481 126.48 37.7091 126.337 39.8181 126.223C40.1329 126.232 40.4421 126.138 40.6991 125.956C40.9562 125.774 41.1473 125.514 41.2436 125.214C41.34 124.914 41.3365 124.591 41.2336 124.293C41.1307 123.996 40.9341 123.739 40.6731 123.563"></path><path id="Vector_29" stroke="#1f1f1f" stroke-linecap="round" stroke-linejoin="round" d="M63.5681 121.964C62.4851 122.097 51.902 122.364 46.278 122.287C45.005 122.269 45.115 120.238 44.778 119.722C43.878 118.343 43.6 118.351 40.902 118.522C37.729 118.722 38.0211 118.864 38.2611 124.298C38.3201 125.628 40.6361 125.78 41.0731 121.562C40.7121 124.811 42.1941 127.034 44.3791 127.737"></path><path id="Vector_30" stroke="#1f1f1f" stroke-linecap="round" stroke-linejoin="round" d="M63.5681 133.326C60.8321 133.25 49.0521 133.174 41.9081 133.041"></path><path id="Vector_31" stroke="#1f1f1f" stroke-linecap="round" stroke-linejoin="round" d="M25.2071 88.544L26.0431 90.235L27.9051 90.501L26.5561 91.812L26.8791 93.673L25.2071 92.799L23.5541 93.673L23.8581 91.812L22.5281 90.501L24.3901 90.235L25.2071 88.544Z"></path><path id="Vector_32" stroke="#1f1f1f" stroke-linecap="round" stroke-linejoin="round" d="M32.4651 88.544L33.3011 90.235L35.1631 90.501L33.8141 91.812L34.1371 93.673L32.4651 92.799L30.8121 93.673L31.1161 91.812L29.7671 90.501L31.6291 90.235L32.4651 88.544Z"></path><path id="Vector_33" stroke="#1f1f1f" stroke-linecap="round" stroke-linejoin="round" d="M39.723 88.544L40.559 90.235L42.421 90.501L41.072 91.812L41.395 93.673L39.723 92.799L38.051 93.673L38.374 91.812L37.025 90.501L38.887 90.235L39.723 88.544Z"></path><path id="Vector_34" stroke="#1f1f1f" stroke-linecap="round" stroke-linejoin="round" d="M46.9811 88.544L47.8171 90.235L49.6791 90.501L48.3301 91.812L48.6341 93.673L46.9811 92.799L45.3091 93.673L45.6321 91.812L44.2831 90.501L46.1451 90.235L46.9811 88.544Z"></path><path id="Vector_35" stroke="#1f1f1f" stroke-linecap="round" stroke-linejoin="round" d="M54.239 88.544L55.056 90.235L56.918 90.501L55.569 91.812L55.892 93.673L54.239 92.799L52.567 93.673L52.89 91.812L51.541 90.501L53.403 90.235L54.239 88.544Z"></path><path id="Vector_36" stroke="#1f1f1f" stroke-linecap="round" stroke-linejoin="round" d="M157.94 65.383C155.679 65.304 155.489 62.571 157.674 62.495C159.308 62.438 160.448 62.457 161.759 62.457C163.925 62.457 164.038 65.357 162.253 65.497C161.17 65.584 160.03 65.456 157.94 65.383Z"></path><path id="Vector_37" stroke="#1f1f1f" stroke-linecap="round" stroke-linejoin="round" d="M158.13 68.328C155.946 68.089 155.945 65.44 158.054 65.516C159.631 65.573 159.821 65.556 161.054 65.649C163.144 65.805 163.068 68.587 161.339 68.613C160.264 68.5957 159.191 68.5004 158.13 68.328V68.328Z"></path><path id="Vector_38" stroke="#1f1f1f" stroke-linecap="round" stroke-linejoin="round" d="M150.587 63.977C153.741 64.377 155.964 60.215 154.634 57.27C154.634 57.27 154.482 54.781 153.95 50.981C153.418 47.181 151.328 46.915 151.385 47.827C151.442 48.739 150.739 53.773 149.979 55.256C149.162 56.851 146.673 56.883 145.343 56.89C141.505 56.909 129.155 56.149 129.155 56.149"></path><path id="Vector_39" stroke="#1f1f1f" stroke-linecap="round" stroke-linejoin="round" d="M129.269 69.468C133.088 69.354 158.282 68.917 161.075 68.632"></path><path id="Vector_40" stroke="#1f1f1f" stroke-linecap="round" stroke-linejoin="round" d="M158.187 59.417C156.002 59.604 155.487 57.008 157.579 56.681C159.138 56.437 160.239 56.318 161.493 56.168C163.583 55.918 164.035 58.654 162.329 59.018C160.956 59.2219 159.574 59.3551 158.187 59.417Z"></path><path id="Vector_41" stroke="#1f1f1f" stroke-linecap="round" stroke-linejoin="round" d="M157.826 62.457C155.626 62.477 155.318 59.836 157.446 59.683C159.023 59.569 161.346 59.496 162.595 59.455C164.685 59.385 164.933 62.163 163.203 62.362C162.159 62.482 159.84 62.438 157.826 62.457Z"></path><path id="Vector_42" stroke="#1f1f1f" stroke-linecap="round" stroke-linejoin="round" d="M154.311 53.869C154.558 56.776 154.691 56.569 161.493 56.169"></path><path id="Vector_43" stroke="#1f1f1f" stroke-linecap="round" stroke-linejoin="round" d="M170.309 44.16C172.042 44.16 173.705 44.8486 174.931 46.0744C176.156 47.3001 176.845 48.9625 176.845 50.696V68.157C176.846 69.8914 176.157 71.5551 174.932 72.7824C173.706 74.0097 172.043 74.7002 170.309 74.702H135.691C134.833 74.7033 133.983 74.5355 133.189 74.2083C132.396 73.881 131.675 73.4007 131.067 72.7947C130.459 72.1887 129.977 71.4689 129.647 70.6764C129.317 69.8839 129.147 69.0343 129.146 68.176V50.7C129.145 49.8422 129.313 48.9926 129.64 48.1997C129.968 47.4068 130.448 46.6863 131.054 46.0793C131.66 45.4722 132.38 44.9906 133.172 44.662C133.965 44.3334 134.814 44.1641 135.672 44.164L170.309 44.16Z"></path><path id="Vector_44" stroke="#1f1f1f" stroke-linecap="round" stroke-linejoin="round" d="M95.906 50.506C96.32 50.3175 96.7143 50.0884 97.083 49.822L96.039 51.836"></path><path id="Vector_45" stroke="#1f1f1f" stroke-linecap="round" stroke-linejoin="round" d="M99.42 47.029C99.5068 48.6544 99.8866 50.2507 100.541 51.741C101.167 53.2076 102.22 54.4522 103.562 55.313C105.137 56.266 110.726 56.186 112.948 60.253C114.963 63.938 117.222 75.947 118.248 82.977C118.456 84.4052 118.165 85.8612 117.424 87.0998C116.683 88.3385 115.538 89.284 114.182 89.777C107.092 92.2732 99.7404 93.9554 92.27 94.791"></path><path id="Vector_46" stroke="#1f1f1f" stroke-linecap="round" stroke-linejoin="round" d="M97.2 41.766C95.89 38.878 91.792 35.742 91.121 43.59C90.9134 45.2575 90.9905 46.9483 91.349 48.59C92.184 51.668 94.503 51.174 95.909 50.509C95.9989 50.9466 96.0434 51.3923 96.042 51.839C96.1078 52.6811 95.8889 53.521 95.4203 54.2238C94.9517 54.9267 94.2607 55.4518 93.458 55.715C92.202 56.148 86.758 56.642 84.091 63.182C83.214 65.328 82.685 67.913 81.697 69.946"></path><path id="Vector_47" stroke="#1f1f1f" stroke-linecap="round" stroke-linejoin="round" d="M103.182 70.76L104.74 78.607L89.864 81.039"></path><path id="Vector_48" stroke="#1f1f1f" stroke-linecap="round" stroke-linejoin="round" d="M91.707 83.092C90.862 83.2692 89.9824 83.1689 89.199 82.806C87.869 81.951 86.899 79.783 85.855 76.916C84.355 72.828 84.145 74.56 83.974 76.116C83.819 76.89 84.31 81.43 82.435 80.372C80.0278 78.167 77.4126 76.2005 74.626 74.5C71.066 72.651 70.846 73.662 73.562 76.153C74.3966 76.9139 75.1895 77.7194 75.937 78.566C76.8469 79.5881 77.6909 80.6669 78.464 81.796C79.614 83.644 81.732 87.134 84.316 88.902C87.0533 90.7782 90.04 92.2616 93.189 93.309"></path><path id="Vector_49" stroke="#1f1f1f" stroke-linecap="round" stroke-linejoin="round" d="M81.4281 86.15C80.2881 84.212 76.8461 82.2 75.2001 80.7C74.0771 79.676 71.9471 78.2 70.7161 77.128C70.4111 76.863 70.5261 76.14 72.8631 77.166C73.3821 77.396 75.1681 78.192 75.9711 78.606"></path><path id="Vector_50" stroke="#1f1f1f" stroke-linecap="round" stroke-linejoin="round" d="M75.064 80.578C74.653 80.466 74.3 80.378 74.113 80.336C71.643 79.709 71.642 80.451 71.985 80.659C73.369 81.499 75.732 82.628 77.001 83.452C78.864 84.5271 80.6312 85.7603 82.283 87.138"></path><path id="Vector_51" stroke="#1f1f1f" stroke-linecap="round" stroke-linejoin="round" d="M88.936 82.616C89.29 80.674 90.171 80.607 91.064 81.916C92.824 84.487 94.064 91.454 92.964 94.094C92.338 95.601 91.14 94.565 90.206 92.194"></path><path id="Vector_52" stroke="#1f1f1f" stroke-linecap="round" stroke-linejoin="round" d="M88.534 91.394L89.7311 95.155L72.2891 90.387L62.675 62.552L80.839 67.245L83.936 76.973"></path><path id="Vector_53" stroke="#1f1f1f" stroke-linecap="round" stroke-linejoin="round" d="M70.655 64.623L69.686 61.108L72.441 61.773L73.068 65.25"></path><path id="Vector_54" stroke="#1f1f1f" stroke-linecap="round" stroke-linejoin="round" d="M98.0151 46.421C97.2128 47.1878 96.2712 47.794 95.2411 48.207"></path><path id="Vector_55" stroke="#1f1f1f" stroke-linecap="round" stroke-linejoin="round" d="M87.5841 68.005C87.5841 68.005 87.2071 73.276 89.3321 77.105L91.3841 80.791"></path><path id="Vector_56" stroke="#1f1f1f" stroke-linecap="round" stroke-linejoin="round" d="M93.4241 94.665L78.4641 124.13C77.6759 125.69 77.2292 127.4 77.1539 129.146C77.0785 130.893 77.3762 132.635 78.0271 134.257C82.7286 145.661 88.4719 156.608 95.1841 166.957C103.391 165.817 110.326 162.473 114.43 155.348C107.267 145.373 101.263 135.911 97.0841 127.304L106.884 111.211C110.892 117.379 115.466 123.161 120.545 128.482C122.308 130.35 124.709 131.487 127.272 131.666C129.834 131.846 132.371 131.055 134.377 129.451C144.12 121.675 153.453 113.567 162.725 105.451C161.971 102.04 160.372 98.8729 158.076 96.2407C155.779 93.6084 152.858 91.5953 149.58 90.386L129.569 109.923C124.369 94.355 118.42 90.082 115.798 88.923"></path><path id="Vector_57" stroke="#1f1f1f" stroke-linecap="round" stroke-linejoin="round" d="M103.847 116.188L103.581 105.282C104.573 107.318 105.676 109.297 106.887 111.21"></path><path id="Vector_58" stroke="#1f1f1f" stroke-linecap="round" stroke-linejoin="round" d="M153 88.505C158.7 88.013 175.668 86.654 181.3 88.484"></path><path id="Vector_59" stroke="#1f1f1f" stroke-linecap="round" stroke-linejoin="round" d="M150.853 90.938L155.318 85.865C164.4 84.326 179.087 84.003 184.118 86.492C178.606 90.521 171.518 94.884 165.137 97.15C163.42 97.6428 161.801 98.4269 160.349 99.468"></path><path id="Vector_60" stroke="#1f1f1f" stroke-linecap="round" stroke-linejoin="round" d="M109.376 161.313L113.423 167.336C112.587 176.513 109.129 190.801 105.423 195C102.657 188.258 100.829 181.168 99.989 173.929C99.802 171.649 99.648 169.54 98.413 167.621L97.713 166.521"></path><path id="Vector_61" stroke="#1f1f1f" stroke-linecap="round" stroke-linejoin="round" d="M72.859 64.053C72.859 64.053 75.899 63.179 78.388 66.618"></path><path id="Vector_62" stroke="#1f1f1f" stroke-linecap="round" stroke-linejoin="round" d="M90.4911 56.605C90.2758 56.7424 90.1103 56.9451 90.0188 57.1835C89.9273 57.4219 89.9146 57.6834 89.9826 57.9295C90.0506 58.1757 90.1958 58.3935 90.3967 58.5511C90.5977 58.7087 90.8439 58.7977 91.0991 58.805C91.311 58.804 91.5187 58.745 91.6995 58.6345C91.8804 58.524 92.0275 58.3661 92.1251 58.178C91.4388 57.8241 90.8709 57.2773 90.4911 56.605V56.605Z"></path><path id="Vector_63" stroke="#1f1f1f" stroke-linecap="round" stroke-linejoin="round" d="M92.068 58.657C92.0671 58.929 92.1622 59.1927 92.3365 59.4015C92.5108 59.6104 92.7532 59.7511 93.021 59.7989C93.2888 59.8467 93.5649 59.7985 93.8007 59.6628C94.0364 59.5271 94.2168 59.3126 94.31 59.057C93.5777 58.8085 92.8607 58.5166 92.163 58.183C92.0954 58.3316 92.0629 58.4938 92.068 58.657Z"></path><path id="Vector_64" stroke="#1f1f1f" stroke-linecap="round" stroke-linejoin="round" d="M94.2531 59.4C94.2523 59.6864 94.357 59.963 94.5472 60.1771C94.7374 60.3912 94.9998 60.5277 95.2842 60.5606C95.5687 60.5935 95.8554 60.5205 96.0894 60.3555C96.3235 60.1904 96.4885 59.945 96.5531 59.666C95.7937 59.519 95.0447 59.3222 94.3111 59.077C94.2718 59.1801 94.2522 59.2897 94.2531 59.4V59.4Z"></path><path id="Vector_65" stroke="#1f1f1f" stroke-linecap="round" stroke-linejoin="round" d="M96.4761 59.835C96.4653 60.1389 96.5752 60.4347 96.7818 60.6579C96.9885 60.881 97.275 61.0133 97.5788 61.0258C97.8827 61.0384 98.1792 60.9302 98.4035 60.7248C98.6278 60.5195 98.7618 60.2338 98.7761 59.93C98.0103 59.8924 97.2485 59.7971 96.4971 59.645C96.5001 59.7 96.4761 59.778 96.4761 59.835Z"></path><path id="Vector_66" stroke="#1f1f1f" stroke-linecap="round" stroke-linejoin="round" d="M98.7941 59.93C98.794 60.2291 98.9115 60.5162 99.1212 60.7295C99.3309 60.9427 99.616 61.065 99.9151 61.07C100.071 61.0716 100.225 61.0405 100.369 60.9787C100.512 60.9169 100.64 60.8257 100.746 60.7111C100.851 60.5965 100.932 60.461 100.982 60.3134C101.032 60.1657 101.05 60.0092 101.036 59.854C100.292 59.9362 99.5422 59.9616 98.7941 59.93V59.93Z"></path><path id="Vector_67" stroke="#1f1f1f" stroke-linecap="round" stroke-linejoin="round" d="M102.232 60.8C102.412 60.7994 102.589 60.7572 102.75 60.6769C102.911 60.5965 103.051 60.48 103.16 60.3366C103.268 60.1932 103.342 60.0266 103.376 59.8499C103.409 59.6733 103.401 59.4912 103.353 59.318C102.619 59.567 101.861 59.7389 101.092 59.831C101.137 60.1009 101.277 60.3461 101.485 60.5234C101.694 60.7007 101.958 60.7986 102.232 60.8V60.8Z"></path><path id="Vector_68" stroke="#1f1f1f" stroke-linecap="round" stroke-linejoin="round" d="M104.417 60.063C104.62 60.0632 104.819 60.0103 104.994 59.9094C105.17 59.8086 105.316 59.6633 105.418 59.4883C105.52 59.3133 105.574 59.1145 105.575 58.9119C105.576 58.7094 105.524 58.5101 105.424 58.334C104.764 58.7416 104.064 59.0791 103.334 59.341C103.425 59.5535 103.576 59.735 103.768 59.8632C103.96 59.9914 104.186 60.0608 104.417 60.063V60.063Z"></path><path id="Vector_69" stroke="#1f1f1f" stroke-linecap="round" stroke-linejoin="round" d="M106.83 56.415C107.098 56.4971 107.327 56.6718 107.477 56.9079C107.627 57.1439 107.688 57.4257 107.649 57.7027C107.611 57.9798 107.474 58.2339 107.265 58.4194C107.055 58.6049 106.787 58.7097 106.507 58.715C106.31 58.7313 106.112 58.7059 105.925 58.6404C105.738 58.575 105.568 58.4709 105.424 58.335C106.058 57.8339 106.544 57.1704 106.83 56.415Z"></path><path id="Vector_70" stroke="#1f1f1f" stroke-linecap="round" stroke-linejoin="round" d="M142.075 26.908V36.959"></path><path id="Vector_71" stroke="#1f1f1f" stroke-linecap="round" stroke-linejoin="round" d="M147.11 31.924H137.059"></path><path id="Vector_72" stroke="#1f1f1f" stroke-linecap="round" stroke-linejoin="round" d="M100.522 46.136C101.881 48.22 103.942 46.478 103.942 43.136C103.942 39.811 101.868 38.054 100.522 40.136C100.028 41.0587 99.7694 42.0893 99.7694 43.136C99.7694 44.1827 100.028 45.2132 100.522 46.136V46.136Z"></path><path id="Vector_73" stroke="#1f1f1f" stroke-linecap="round" stroke-linejoin="round" d="M101.852 39.22H99.174C98.011 39.22 97.081 40.978 97.084 43.134C97.087 45.29 98.015 47.034 99.174 47.034H101.683"></path><path id="Vector_74" stroke="#1f1f1f" stroke-linecap="round" stroke-linejoin="round" d="M90.624 39.448C89.712 39.486 88.857 41.291 88.97 43.438C89.085 45.49 90.035 47.138 91.117 47.219C90.815 44.6304 90.8275 42.0147 91.154 39.429L90.624 39.448Z"></path><path id="Vector_75" stroke="#1f1f1f" stroke-linecap="round" stroke-linejoin="round" d="M90.947 39.315C91.135 38.2398 91.7107 37.2709 92.5651 36.5916C93.4194 35.9123 94.4931 35.5699 95.583 35.629C96.6812 35.595 97.7591 35.9304 98.6442 36.5814C99.5292 37.2324 100.17 38.1615 100.465 39.22"></path><path id="Vector_76" stroke="#1f1f1f" stroke-linecap="round" stroke-linejoin="round" d="M52.7381 18.358C52.5373 18.157 52.2988 17.9976 52.0364 17.8888C51.774 17.78 51.4927 17.724 51.2086 17.724C50.9245 17.724 50.6432 17.78 50.3807 17.8888C50.1183 17.9976 49.8798 18.157 49.6791 18.358L49.1281 18.928L48.5771 18.358C48.1714 17.9524 47.6212 17.7245 47.0476 17.7245C46.4739 17.7245 45.9237 17.9524 45.5181 18.358C45.1124 18.7636 44.8845 19.3138 44.8845 19.8875C44.8845 20.4612 45.1124 21.0114 45.5181 21.417L49.1281 25.027L52.7381 21.417C52.939 21.2162 53.0985 20.9778 53.2073 20.7153C53.316 20.4529 53.372 20.1716 53.372 19.8875C53.372 19.6034 53.316 19.3221 53.2073 19.0597C53.0985 18.7972 52.939 18.5588 52.7381 18.358V18.358Z"></path><path id="Vector_77" stroke="#1f1f1f" stroke-linecap="round" stroke-linejoin="round" d="M59.6001 34.577L67.1611 37.567L64.2351 30.067C66.0532 27.4747 67.0164 24.3792 66.9901 21.213C66.8861 12.145 58.7801 4.906 48.8811 5C38.9631 5.1 31.0111 12.506 31.1001 21.55C31.2001 32.25 42.2341 39.733 53.2731 37.263C55.5295 36.7649 57.6745 35.8543 59.6001 34.577V34.577Z"></path><path id="Vector_78" stroke="#1f1f1f" stroke-linecap="round" stroke-linejoin="round" d="M168.922 159.318L161.93 158.311L158.814 151.984L155.698 158.311L148.706 159.318L153.76 164.258L152.563 171.212L158.814 167.925L165.065 171.212L163.868 164.258L168.922 159.318Z"></path><path id="Vector_79" stroke="#1f1f1f" stroke-linecap="round" stroke-linejoin="round" d="M103.942 42.545C112.813 43.1508 121.433 45.7555 129.155 50.164"></path><path id="Vector_80" stroke="#1f1f1f" stroke-linecap="round" stroke-linejoin="round" d="M43.2571 83.3C46.5964 73.1604 52.6004 64.1051 60.6404 57.0821C68.6804 50.0592 78.4606 45.327 88.9571 43.381"></path><path id="Vector_81" stroke="#1f1f1f" stroke-linecap="round" stroke-linejoin="round" d="M156.002 94.205L145.172 104.332"></path><path id="Vector_82" stroke="#1f1f1f" stroke-linecap="round" stroke-linejoin="round" d="M108.217 162.054L100.161 149.59"></path><path id="Vector_83" stroke="#1f1f1f" stroke-linecap="round" stroke-linejoin="round" d="M109.148 94.642C110.611 95.7057 112.275 96.4598 114.039 96.8584C115.803 97.2569 117.63 97.2915 119.408 96.96"></path><path id="Vector_84" stroke="#1f1f1f" stroke-linecap="round" stroke-linejoin="round" d="M46.9811 152.991V155.203"></path><path id="Vector_85" stroke="#1f1f1f" stroke-linecap="round" stroke-linejoin="round" d="M51.284 157.295H49.072"></path><path id="Vector_86" stroke="#1f1f1f" stroke-linecap="round" stroke-linejoin="round" d="M46.9811 161.598V159.386"></path><path id="Vector_87" stroke="#1f1f1f" stroke-linecap="round" stroke-linejoin="round" d="M42.677 157.295H44.89"></path><path id="Vector_88" stroke="#1f1f1f" stroke-linecap="round" stroke-linejoin="round" d="M49.072 157.295C48.7973 157.295 48.5252 157.241 48.2713 157.136C48.0174 157.031 47.7867 156.877 47.5925 156.683C47.3983 156.488 47.2443 156.258 47.1394 156.004C47.0344 155.75 46.9806 155.478 46.981 155.203C46.9815 155.478 46.9278 155.75 46.8229 156.004C46.7181 156.258 46.5641 156.489 46.3698 156.683C46.1756 156.877 45.9448 157.032 45.6909 157.137C45.437 157.242 45.1648 157.295 44.89 157.295C45.1647 157.295 45.4368 157.348 45.6907 157.453C45.9445 157.558 46.1752 157.712 46.3695 157.907C46.5637 158.101 46.7177 158.331 46.8227 158.585C46.9276 158.839 46.9814 159.111 46.981 159.386C46.9808 159.111 47.0347 158.839 47.1396 158.585C47.2446 158.332 47.3986 158.101 47.5929 157.907C47.7871 157.713 48.0177 157.559 48.2715 157.454C48.5253 157.349 48.7973 157.295 49.072 157.295V157.295Z"></path><path id="Vector_89" stroke="#1f1f1f" stroke-linecap="round" stroke-linejoin="round" d="M111.466 164.41C110.482 170.051 107.442 186.799 104.226 191.772"></path></g></g></svg>